<svg enable-background="new 0 0 750 500" viewBox="0 0 750 500" xmlns="http://www.w3.org/2000/svg"><path d="m750 500h-749.34l-.105-77.66-.555-422.34h749.34l.54 406.23.015 15.91v.2z" fill="#fff"/><g fill="#333"><path d="m298.208 89.761c-.045-.176.209-.425.933-.589.708-.144 1.945-.233 3.523.417.782.322 1.644.824 2.464 1.608.81.781 1.586 1.878 1.969 3.299.386 1.413.316 3.1-.324 4.746-.645 1.626-1.881 3.286-3.832 4.252-.532.276-1.15.474-1.71.561-.589.09-1.055.14-1.66.124-1.153-.076-2.098-.423-2.962-.85-1.71-.871-2.926-2.265-3.482-3.693-.592-1.426-.564-2.795-.456-3.863.12-1.088.389-2.003.729-2.727.688-1.462 1.557-2.117 2.07-2.397.534-.281.784-.229.88-.069.108.176.017.372-.311.754-.314.39-.912.962-1.417 2.177-.25.604-.462 1.373-.559 2.324-.091.956-.111 2.049.345 3.176.429 1.116 1.334 2.249 2.757 2.995.696.377 1.532.661 2.366.745.348.024.914-.021 1.351-.085.471-.075.892-.18 1.33-.407 1.665-.778 2.747-2.251 3.272-3.663.544-1.432.51-2.847.166-3.971-.358-1.131-1.021-2-1.708-2.628-.688-.634-1.402-1.042-2.037-1.31-1.283-.528-2.224-.57-2.802-.62-.58-.041-.846-.104-.895-.306z"/><path d="m539.257 230.736c0 .099-1.366.185-4.322.26s-7.502.138-13.863.192v-.835c22.154-.143 66.443-.123 142.233.005v1.403c-53.685-.023-123.215-.052-211.914-.09-161.049-.12-255.22-.19-309.129-.23-26.954-.058-43.843-.135-53.993-.247-5.075-.056-8.466-.121-10.587-.197-2.122-.076-2.975-.162-2.975-.261s.815-.183 2.871-.255 5.354-.13 10.317-.178c9.928-.096 26.523-.147 53.191-.169 53.336.019 146.963.053 308.13.11 90.665.043 160.658.076 214.088.102v1.428c-77.618-.168-120.737-.302-142.233-.512v-.982c6.547.051 11.093.113 14.003.188 2.911.075 4.183.164 4.183.268z"/><path d="m153.876 173.089c.255.311-1.606 2.06-6.723 6.426-5.111 4.372-13.498 11.344-26.11 22.313-14.217 12.403-22.342 19.868-27.07 24.055-4.718 4.2-6.013 5.155-6.284 4.861-.266-.288.736-1.457 5.3-5.732 4.575-4.264 12.687-11.665 26.924-24.093 13.348-11.61 21.777-18.648 26.86-22.788 5.091-4.131 6.855-5.343 7.103-5.042z"/><path d="m159.392 177.922c-.516.6-1.072.068-2.981-1.577-2.155-1.856-2.547-2.139-2.031-2.739s.79-.212 2.947 1.646c2.019 1.739 2.581 2.07 2.065 2.67z"/><path d="m264.638 112.846c.194.365-2.925 2.188-11.237 6.846-8.299 4.678-21.835 12.134-42.053 24.461-22.778 13.984-35.67 22.832-43.131 27.767-7.437 4.974-9.387 6.14-9.619 5.806-.22-.316 1.445-1.716 8.722-6.776 7.301-5.021 20.158-13.801 42.975-27.827 21.407-13.053 35.045-20.558 43.214-24.98 8.186-4.395 10.95-5.633 11.129-5.297z"/><path d="m287.747 134.946c-.202.322-1.116.021-3.138-1.388-2.014-1.412-5.023-4.059-9.155-8.463-9.328-9.899-10.931-11.548-10.357-12.09.576-.544 2.001 1.144 11.329 11.042 4.346 4.638 7.329 7.15 9.146 8.599 1.819 1.444 2.396 1.952 2.175 2.3z"/><path d="m317.959 152.816c-.281.3-1.292-.442-3.822-2.531-2.541-2.074-6.62-5.495-13.303-10.194-3.776-2.644-6.834-4.65-9.253-6.231-1.211-.789-2.261-1.474-3.17-2.067-.446-.288-.893-.596-1.231-.801-.355-.207-.552-.259-.818-.239-.556.049-1.149.347-1.642.515-.499.18-.983.286-1.39.201-.409-.088-.622-.33-.666-.482-.055-.16-.019-.248.058-.309.161-.141.378-.025.661-.098.154-.032.424-.132.842-.348.435-.199.943-.573 1.908-.766.487-.104 1.176.026 1.629.297.478.261.851.518 1.321.807.911.582 1.964 1.255 3.181 2.032 2.423 1.571 5.484 3.588 9.288 6.249 7.109 5.001 11.272 8.47 13.66 10.638 2.383 2.179 3.006 3.05 2.747 3.327z"/><path d="m313.05 132.575c.506.608-.701 1.558-4.574 4.779-4.372 3.635-5.087 4.282-5.593 3.674-.506-.609.276-1.108 4.651-4.746 4.096-3.405 5.01-4.315 5.516-3.707z"/><path d="m377.612 133.202c.062.188-.348.465-1.374.889-.513.212-1.18.461-2.02.754-.841.287-1.87.562-3.083.907-2.43.674-5.664 1.388-9.856 2.053-4.193.648-9.367 1.145-15.639 1.16-7.082-.034-12.669-.719-17.039-1.435-2.181-.395-4.07-.746-5.684-1.15-1.626-.354-2.979-.737-4.115-1.07-2.285-.623-3.659-1.204-4.482-1.55-.817-.367-1.055-.594-.992-.782s.379-.237 1.233-.076c.861.138 2.23.588 4.483 1.12 1.121.283 2.448.642 4.045.969.797.168 1.65.38 2.581.556.932.169 1.931.351 3.002.546 4.292.705 9.792 1.389 16.783 1.448 13.109-.059 21.086-2.097 25.786-3.167 2.363-.546 3.908-.993 4.898-1.184.988-.195 1.411-.176 1.473.012z"/><path d="m369.311 125.235c.336.194.275.711-.33 1.834-.611 1.115-1.744 2.855-3.799 5.262-2.346 2.695-3.949 4.057-4.902 4.773-.968.704-1.327.735-1.57.429-.249-.313-.126-.613.702-1.406.815-.805 2.38-2.082 4.659-4.691 2.105-2.466 3.159-4.188 3.865-5.159.697-.98 1.027-1.243 1.375-1.042z"/><path d="m422.77 92.483c.223.314-1.16 1.553-5.125 4.385-3.973 2.819-10.508 7.267-20.829 13.602-11.674 7.11-18.724 10.891-22.783 12.998-4.073 2.085-5.193 2.441-5.373 2.096-.186-.356.722-1.004 4.666-3.199 3.93-2.217 10.936-5.928 22.589-13.015 10.882-6.678 17.398-11.191 21.343-13.802 3.935-2.626 5.278-3.395 5.512-3.065z"/><path d="m473.338 129.946c-.193.341-1.92-.405-6.26-2.777-2.17-1.186-4.991-2.786-8.575-4.907-3.579-2.129-7.917-4.792-13.009-8.267-11.478-7.897-17.292-13.747-20.462-17.153-1.609-1.693-2.47-2.888-2.985-3.601-.5-.728-.583-1.042-.431-1.17.151-.128.444-.008 1.083.563.657.555 1.579 1.635 3.208 3.233 3.207 3.219 8.855 8.985 20.239 16.848 5.342 3.65 9.833 6.373 13.462 8.548 3.652 2.143 6.423 3.77 8.496 4.986 4.144 2.441 5.43 3.35 5.234 3.697z"/><path d="m534.576 173.525c-.158.119-.71-.333-1.801-1.513-.547-.589-1.223-1.365-2.061-2.336-.883-.933-1.94-2.051-3.193-3.374-1.27-1.304-2.797-2.757-4.539-4.43-1.806-1.607-3.812-3.457-6.202-5.386-4.726-3.921-10.765-8.387-18.207-13.639-8.408-5.918-15.034-10.712-20.042-14.801-2.533-2.009-4.61-3.9-6.437-5.501-.878-.841-1.688-1.616-2.435-2.331-.371-.36-.727-.704-1.068-1.034-.242-.233-.166-.165-.197-.198-.019-.014-.03.006-.067.02-5.931 3.499-7.518 4.244-7.724 3.906-.205-.338 1.131-1.348 6.917-4.944.31-.191.628-.386.953-.586.099-.116.17.037.251.095l.241.227c.146.138.294.277.443.418.339.318.692.649 1.062.996.737.695 1.538 1.449 2.406 2.268 1.814 1.554 3.852 3.42 6.36 5.402 4.949 4.042 11.515 8.815 19.934 14.74 7.876 5.555 14.18 10.214 19.019 14.282 1.218 1.007 2.357 1.959 3.38 2.911 1.032.94 2.015 1.8 2.898 2.641.866.861 1.671 1.662 2.419 2.406.755.737 1.433 1.436 2.019 2.119 1.19 1.348 2.206 2.445 2.973 3.407.749.978 1.325 1.755 1.751 2.363.852 1.215 1.105 1.753.947 1.872z"/><path d="m516.762 149.388c.265.746-.421.945-2.624 1.727-2.487.882-2.895 1.07-3.16.325-.265-.746.177-.78 2.666-1.663 2.33-.826 2.853-1.135 3.118-.389z"/><path d="m559.13 165.879c-.002.198-.335.333-1.112.417-.778.089-2 .127-3.768.011-3.51-.253-9.324-.87-17.589-3.965-4.639-1.793-8.113-3.69-10.769-5.305-1.314-.834-2.45-1.562-3.387-2.262-.96-.666-1.73-1.284-2.372-1.814-2.557-2.13-3.016-2.877-2.769-3.152.279-.314.946.133 3.514 2.076.648.479 1.405 1.064 2.349 1.695.921.664 2.026 1.372 3.31 2.177 2.588 1.573 5.974 3.434 10.509 5.207 8.556 3.204 14.29 3.676 17.619 4.063 1.679.19 2.797.254 3.493.38.697.124.973.274.972.472z"/><path d="m581.621 204.553c-.371.172-1.058-.94-2.656-3.965-1.613-3.014-4.097-7.98-8.579-15.202-5.11-8.12-8.588-12.536-10.464-15.14-1.905-2.586-2.29-3.324-1.977-3.579.3-.245.94.242 2.966 2.722 1.996 2.497 5.455 6.947 10.617 15.13 4.776 7.696 7.302 12.731 8.741 15.759 1.42 3.042 1.701 4.114 1.352 4.275z"/><path d="m646.194 230.857c-.278.327-2.148-1.097-7.345-4.569-2.593-1.744-6.029-3.987-10.449-6.861-4.413-2.883-9.831-6.367-16.262-10.796-7.259-4.992-12.809-9.304-16.75-13.279-.515-.47-.938-1.012-1.371-1.508-.214-.251-.425-.497-.632-.739-.034-.04-.003-.014-.02-.021-.869.597-1.675 1.152-2.424 1.666-1.709 1.163-3.153 2.146-4.369 2.974-4.886 3.286-6.217 3.982-6.443 3.657s.848-1.276 5.592-4.657c1.19-.839 2.605-1.836 4.283-3.019.897-.626 1.864-1.301 2.907-2.029l.368-.256.185-.129.093-.065.047-.032c.013.005.025.026.038.038.2.232.403.467.607.703.234.272.473.548.716.83.422.462.796.986 1.296 1.445 3.793 3.84 9.267 8.134 16.493 13.112 6.769 4.665 12.393 8.259 16.89 11.212 4.502 2.948 7.911 5.205 10.402 6.991 4.995 3.557 6.383 5.063 6.148 5.332z"/><path d="m586.448 132.91c.005.396-11.367.511-48.68.956-42.116.502-49.254.608-49.258.212-.005-.396 6.818-.419 48.965-.922 39.455-.47 48.968-.641 48.973-.246z"/><path d="m522.806 122.281c-.083.054-.375-.236-.949-.963-.587-.716-1.499-1.851-3.01-3.311-1.517-1.44-3.649-3.239-6.795-4.851-3.119-1.592-7.349-3.027-12.572-2.856-2.935.128-5.515.818-7.7 1.688-2.189.879-3.988 1.963-5.472 3.045-2.96 2.202-4.652 4.371-5.743 5.996-.528.83-.95 1.51-1.236 2.092-.322.564-.531 1.011-.688 1.349-.328.669-.492.879-.585.846s-.069-.281.163-.989c.112-.356.277-.827.572-1.412.143-.294.291-.631.486-.992.209-.353.44-.743.695-1.174 1.077-1.677 2.773-3.929 5.798-6.2 1.512-1.122 3.35-2.247 5.595-3.164 2.24-.913 4.894-1.621 7.923-1.794 5.699-.217 10.181 1.418 13.43 3.1 3.25 1.764 5.401 3.619 6.859 5.114 1.445 1.517 2.272 2.639 2.724 3.373.454.734.588 1.049.505 1.103z"/><path d="m551.896 128.516c-.2.115-.851-1.074-2.921-3.95-1.051-1.423-2.472-3.27-4.581-5.368-2.107-2.083-4.929-4.449-8.868-6.386-4.473-2.134-8.461-2.67-11.531-2.707-3.095-.008-5.335.492-6.915.95-.788.246-1.428.45-1.931.657-.514.18-.896.342-1.185.463-.582.23-.807.26-.854.174-.047-.087.101-.24.637-.563.267-.165.631-.371 1.138-.585.496-.24 1.134-.48 1.933-.747 1.598-.505 3.887-1.055 7.058-1.06 3.147.011 7.231.553 11.838 2.714 4.276 2.084 7.231 4.635 9.41 6.806 2.158 2.212 3.575 4.089 4.567 5.529 1.951 2.909 2.352 3.993 2.205 4.073z"/><path d="m567.411 133.363c-.214.049-.389-.736-.985-2.676-.317-.96-.823-2.179-1.903-3.491-1.067-1.309-2.666-2.71-4.738-4.179-2.348-1.645-4.469-2.514-6.195-2.888-1.732-.378-3.047-.328-3.98-.235-1.866.255-2.314.5-2.399.279-.067-.141.309-.561 2.27-.92.977-.146 2.368-.216 4.191.164 1.82.379 4.038 1.285 6.455 2.97 2.241 1.587 3.933 3.064 5.065 4.509 1.143 1.435 1.643 2.796 1.911 3.777.507 1.99.481 2.651.308 2.69z"/><path d="m545.307 136.523c0 .396-3.722.375-15.934.375-13.784 0-16.12.02-16.12-.375s2.233-.338 16.027-.338c12.913.001 16.027-.057 16.027.338z"/><path d="m557.86 136.831c.04.394-.422.42-1.93.574-1.702.173-1.988.223-2.029-.171s.242-.364 1.945-.538c1.595-.162 1.974-.259 2.014.135z"/><path d="m548.611 142.471c0 .396-1.036.375-4.435.375-3.837 0-4.487.02-4.487-.375 0-.396.622-.338 4.461-.338 3.595 0 4.461-.057 4.461.338z"/><path d="m199.54 150.448c-.009.204-1.774.206-6.427.096-4.653-.101-12.198-.342-23.766-.318-13.057.058-20.687.392-25.056.514-4.369.139-5.478.11-5.488-.091-.01-.194 1.043-.34 5.366-.557 4.323-.2 11.919-.514 24.999-.578 12.245-.026 19.843.214 24.376.392 4.534.189 6.004.35 5.996.542z"/><path d="m179.906 142.106c-.079.059-.308-.102-.738-.537-.441-.422-1.125-1.097-2.266-1.873-1.142-.758-2.763-1.645-5.042-2.136-2.251-.505-5.214-.621-8.475.486-3.669 1.337-6.044 3.494-7.671 5.283-1.628 1.827-2.552 3.389-3.197 4.526-1.232 2.314-1.458 2.954-1.673 2.871-.156-.055-.107-.736 1.07-3.128.619-1.173 1.538-2.785 3.204-4.672 1.66-1.854 4.105-4.093 7.925-5.519 3.615-1.254 6.824-1.047 9.219-.492 2.415.594 4.096 1.548 5.223 2.389 1.119.862 1.749 1.569 2.08 2.046.333.481.42.696.341.756z"/><path d="m216.697 139.06c-.08.058-.362-.184-.917-.808-.565-.614-1.437-1.593-2.848-2.855-1.416-1.246-3.381-2.801-6.229-4.227-2.828-1.417-6.595-2.719-11.298-2.883-5.32-.104-9.428 1.303-12.406 2.708-2.994 1.449-4.938 2.967-6.284 4.117-.665.59-1.201 1.074-1.609 1.494-.426.402-.735.725-.969.966-.477.476-.681.603-.758.541s.009-.272.405-.813c.196-.273.469-.627.874-1.055.386-.445.905-.959 1.567-1.569 1.338-1.195 3.296-2.772 6.349-4.265 3.032-1.461 7.232-2.91 12.705-2.845 5.119.155 9.106 1.618 12.053 3.116 2.945 1.555 4.93 3.161 6.294 4.459 1.354 1.316 2.144 2.291 2.582 2.934.439.645.569.927.489.985z"/><path d="m190.563 155.235c-.009.403-2.732.28-11.638.06-5.021-.09-7.929.239-9.587.438-1.657.208-2.086.238-2.129.032-.039-.182.34-.383 1.997-.674 1.656-.279 4.609-.599 9.661-.511 9.438.234 11.705.267 11.696.655z"/><path d="m159.924 155.154c.007.396-.567.386-2.449.42-2.125.039-2.484.066-2.492-.329-.007-.396.338-.344 2.464-.383 1.991-.037 2.469-.104 2.477.292z"/><path d="m169.147 159.188c.095.361-.401.554-2.083.715-1.905.102-2.232-.022-2.194-.385.037-.423.32-.23 2.126-.324 1.686-.166 2.05-.415 2.151-.006z"/><path d="m209.754 195.292c.02.189-.318.389-1.152.53-.832.142-2.165.215-4.063.029-1.901-.172-4.337-.658-7.405-1.315-3.076-.66-6.842-1.453-11.355-2.663-10.208-2.714-15.783-5.703-18.773-7.591-.741-.493-1.343-.893-1.811-1.242-.459-.364-.799-.655-1.041-.889-.485-.469-.581-.714-.464-.873s.375-.152.958.132c.578.292 1.485.853 2.967 1.713 2.959 1.692 8.298 4.634 18.398 7.337 4.718 1.269 8.613 2.068 11.743 2.751 3.138.685 5.49 1.163 7.26 1.382 3.532.417 4.69.251 4.738.699z"/><path d="m245.636 230.827c-.565.554-3.944-2.953-15.128-14.366-12.623-12.882-14.791-15.037-14.226-15.59.565-.554 2.527 1.614 15.16 14.505 11.825 12.068 14.759 14.897 14.194 15.451z"/><path d="m478.862 182.488c.168.105.01.615-.555 1.681-.559 1.069-1.524 2.694-3.079 4.95-1.535 2.269-3.682 5.152-6.614 8.708-2.944 3.546-6.749 7.707-11.72 12.363-5.643 5.223-10.506 8.917-14.431 11.697-1.983 1.363-3.707 2.539-5.25 3.479-1.518.98-2.842 1.74-3.962 2.372-2.221 1.298-3.7 1.953-4.589 2.34-.899.37-1.251.397-1.343.222s.113-.449.889-.989c.765-.559 2.148-1.301 4.284-2.642 1.076-.656 2.365-1.418 3.847-2.397.743-.486 1.56-.986 2.413-1.566.85-.584 1.762-1.211 2.74-1.882 3.869-2.739 8.679-6.38 14.283-11.536 10.401-9.776 15.533-17.085 18.662-21.316 1.565-2.129 2.541-3.583 3.225-4.441.677-.862 1.032-1.148 1.2-1.043z"/><path d="m506.121 192.388c-.001.198-.216.336-.72.427-.504.096-1.298.143-2.445.07-2.281-.144-6.034-.676-11.338-2.74-5.943-2.419-9.089-4.482-10.875-5.631-1.766-1.198-2.104-1.662-1.892-1.988.219-.337.732-.186 2.536.851 1.823.988 4.883 3.043 10.673 5.409 5.459 2.13 9.094 2.535 11.216 2.816 2.138.254 2.847.365 2.845.786z"/><path d="m516.326 206.811c-.288.266-.768.035-1.708-.886-.936-.923-2.341-2.526-4.354-5.094-2.26-2.908-3.472-4.693-4.094-5.759-.616-1.071-.625-1.437-.296-1.652.333-.218.632-.061 1.362.898.737.953 1.892 2.724 4.121 5.597 2.1 2.679 3.528 4.237 4.312 5.227.79.986.95 1.398.657 1.669z"/><path d="m566.452 231.199c-.568.589-5.946-4.91-25.426-21.118-2.745-2.289-5.206-4.341-7.409-6.179-1.101-.921-2.138-1.787-3.115-2.604-.487-.41-.96-.807-1.417-1.191-.09-.077-.028-.023-.048-.04-.251.107-.498.211-.74.314-4.2 1.749-7.58 2.345-10.012 2.503-2.444.16-3.97-.033-4.871-.18-.901-.179-1.189-.351-1.17-.547.019-.197.321-.314 1.195-.343.874-.062 2.328-.005 4.632-.223 2.298-.222 5.46-.778 9.523-2.464.253-.107.51-.215.772-.326.23-.099.461-.198.695-.299l.202-.087c.063.004.115.083.172.12l.341.286c.485.407.986.827 1.503 1.262.973.814 2.007 1.679 3.106 2.597 2.2 1.836 4.66 3.889 7.407 6.181 20.593 17.153 25.181 21.812 24.66 22.338z"/><path d="m244.633 212.178c.105.373-.31.704-1.555 1.089-1.244.373-3.317.83-6.54 1.088-3.641.255-5.784.064-6.989-.114-1.207-.198-1.486-.434-1.439-.822.049-.397.355-.518 1.525-.482 1.168.017 3.22.24 6.747-.001 3.299-.264 5.298-.765 6.506-.968 1.208-.217 1.636-.178 1.745.21z"/><path d="m276.323 230.703c-.384.684-4.173-1.458-16.799-8.275-14.225-7.75-16.491-9.386-16.098-10.006.449-.722 2.469.952 16.684 8.701 13.335 7.2 16.602 8.887 16.213 9.58z"/><path d="m394.563 138.333c.266.272-.015.856-1.185 1.971-1.177 1.095-3.229 2.776-6.796 4.627-4.057 2.03-6.684 2.628-8.163 2.91-1.497.249-1.908.106-1.974-.274-.07-.398.256-.605 1.646-.991 1.372-.417 3.882-.945 7.79-2.887 3.626-1.882 5.557-3.56 6.755-4.471 1.19-.933 1.643-1.179 1.927-.885z"/><path d="m425.935 165.605c-.523.603-4.132-2.583-16.66-12.456-7.029-5.641-10.889-9.275-13.003-11.433-2.105-2.172-2.494-2.86-2.218-3.132.287-.283.906.128 3.078 2.146 2.184 2.005 5.941 5.605 12.942 11.231 13.217 10.422 16.371 13.057 15.861 13.644z"/><path d="m432.523 157.573c.025.196-.13.356-.527.499-.396.148-1.035.278-1.974.321-1.866.099-4.971-.122-9.356-1.547-4.917-1.666-7.6-3.01-9.148-3.743-1.531-.769-1.852-1.112-1.695-1.476.157-.363.606-.353 2.186.264 1.59.58 4.251 1.95 9.03 3.575 4.499 1.465 7.424 1.562 9.133 1.617 1.719.039 2.298.071 2.351.49z"/><path d="m591.934 218.317c-.479.577-1.607-.219-4.711-3.429-1.723-1.837-2.636-2.999-3.089-3.712-.448-.719-.42-1.004-.105-1.24.318-.238.57-.177 1.123.42.559.592 1.409 1.738 3.086 3.529 1.58 1.666 2.667 2.59 3.254 3.208.591.615.699.919.442 1.224z"/><path d="m326.625 177.381c.141.139-.179.657-1.086 1.697-.903 1.045-2.393 2.614-4.677 4.765-4.576 4.271-12.176 11.131-25.205 19.726-7.38 4.802-13.516 8.143-18.423 10.645-2.469 1.224-4.612 2.279-6.505 3.115-1.875.875-3.489 1.548-4.852 2.105-5.46 2.215-6.943 2.51-7.074 2.166-.151-.393 1.137-1.001 6.442-3.316 1.323-.587 2.903-1.266 4.744-2.146 1.858-.842 3.975-1.883 6.412-3.102 4.853-2.475 10.938-5.776 18.28-10.529 13.68-9.023 21.174-15.979 25.698-19.999 2.263-2.022 3.719-3.41 4.687-4.213.965-.806 1.419-1.053 1.559-.914z"/><path d="m367.132 206.036c-.07.185-.466.184-1.305-.035-.841-.215-2.126-.647-3.938-1.406-3.604-1.531-9.448-4.199-17.505-9.735-9.017-6.362-13.484-11.106-15.996-13.784-2.47-2.741-2.904-3.598-2.62-3.844.312-.272.988.313 3.51 2.884 2.565 2.508 6.908 7.188 15.798 13.49 8.407 5.777 14.252 8.322 17.655 9.929 3.434 1.57 4.55 2.108 4.401 2.501z"/><path d="m406.481 229.898c-.246.301-1.769-.678-5.463-3.667-3.681-3.004-9.559-7.993-18.189-16.056-4.866-4.554-8.627-8.264-11.57-11.222-.367-.379-.682-.671-.926-.755-.204-.086-.449-.036-.844.132-.825.367-1.591.708-2.301 1.025-1.433.627-2.644 1.158-3.664 1.604-4.095 1.757-5.2 2.051-5.363 1.691-.163-.361.749-.959 4.736-2.841 1-.464 2.188-1.015 3.598-1.668.707-.323 1.47-.671 2.292-1.046.41-.177 1.034-.481 1.815-.298.74.196 1.182.675 1.555 1.037 2.928 2.932 6.664 6.631 11.517 11.177 9.097 8.501 15.033 13.453 18.506 16.49 3.488 3.018 4.557 4.085 4.301 4.397z"/><path d="m436.3 125.083c-.327.223-2.549-3.071-9.896-13.842-8.293-12.157-9.715-14.206-9.388-14.429s1.622 1.779 9.921 13.945c7.768 11.389 9.689 14.103 9.363 14.326z"/><path d="m485.638 142.046c-.054.189-1.553-.136-5.454-1.206-3.895-1.089-10.219-2.84-19.793-5.931-10.796-3.529-16.938-6.102-20.418-7.63-3.474-1.55-4.297-2.064-4.219-2.233.087-.19.946.142 4.4 1.6 3.462 1.435 9.534 4.006 20.313 7.538 10.104 3.261 16.471 4.989 20.24 6.126 3.775 1.116 4.986 1.545 4.931 1.736z"/><path d="m511.84 172.562c-.294.265-3.406-3.221-13.668-14.615-11.583-12.86-13.561-15.026-13.267-15.291s2.127 1.857 13.719 14.727c10.85 12.048 13.51 14.915 13.216 15.179z"/><path d="m552.964 184.299c.006.099-.322.183-1.091.263-.769.086-1.979.168-3.738.155-3.497-.048-9.281-.237-17.73-2.549-9.495-2.768-14.497-5.863-17.307-7.545-2.788-1.771-3.388-2.374-3.287-2.516.125-.181.796.249 3.565 1.921.697.411 1.517.913 2.528 1.442.993.562 2.172 1.152 3.541 1.819 2.753 1.298 6.325 2.807 11.025 4.161 8.847 2.421 14.614 2.501 17.982 2.618 1.696.054 2.82.017 3.523.047.703.024.983.085.989.184z"/><path d="m588.607 230.231c-.128.131-1.437-.97-4.614-4.161-3.161-3.204-8.241-8.467-15.379-17.092-8.004-9.78-12.168-15.9-14.546-19.393-2.348-3.517-2.838-4.476-2.681-4.579.173-.114.786.706 3.167 4.134 2.41 3.403 6.521 9.485 14.501 19.255 7.528 9.098 12.666 14.337 15.682 17.503 3.037 3.147 4.017 4.182 3.87 4.333z"/><path d="m632.73 230.696c-.075.065-.348-.118-.887-.611-.262-.254-.607-.57-1.062-.94-.434-.391-.98-.829-1.644-1.328-1.323-1.002-3.147-2.2-5.584-3.609-1.22-.711-2.574-1.5-4.075-2.374-1.493-.893-3.123-1.915-4.773-3.233-1.862-1.478-3.356-3.077-4.401-4.675-1.062-1.593-1.935-3.018-2.689-4.279-1.518-2.525-2.632-4.379-3.444-5.729-1.6-2.714-1.934-3.444-1.765-3.547s.638.504 2.288 3.148c.815 1.328 1.937 3.158 3.472 5.66.759 1.259 1.623 2.681 2.654 4.23 1.003 1.572 2.415 3.101 4.23 4.557 1.698 1.362 3.383 2.415 4.927 3.333 1.557.908 2.95 1.719 4.193 2.443 2.493 1.453 4.323 2.697 5.602 3.744.652.507 1.15.984 1.556 1.379.419.381.7.73.916.994.431.532.561.772.486.837z"/><path d="m502.645 199.872c-.029.17-.929.182-3.156-.473-2.201-.676-5.769-2.091-10.36-5.551-2.575-1.962-4.444-3.717-5.9-5.113-1.45-1.404-2.476-2.47-3.213-3.255-1.47-1.573-1.777-2.032-1.636-2.169.143-.139.563.18 2.071 1.679.756.746 1.781 1.792 3.218 3.178 1.442 1.379 3.286 3.119 5.822 5.06 4.783 3.607 8.322 4.905 10.389 5.612 2.096.67 2.806.815 2.765 1.032z"/><path d="m528.317 229.071c.114-.055.41.363.993 1.438l.738 1.362-1.141-1.079c-1.874-1.773-5.951-5.887-13.295-14.036-6.081-6.785-9.478-10.893-11.401-13.26-1.913-2.376-2.322-3.038-2.171-3.161.156-.127.681.395 2.631 2.693 1.959 2.288 5.315 6.379 11.389 13.161 7.583 8.413 11.572 12.37 13.226 14.232l-.455.32c-.505-1.16-.634-1.612-.514-1.67z"/><path d="m535.891 213.814c-.389.166-.944-1.459-3.419-6.494-2.877-5.641-3.553-6.494-3.178-6.71.31-.181.898.677 3.797 6.353 2.627 5.356 3.135 6.71 2.8 6.851z"/><path d="m564.962 231.294c-.087.171-1.025-.186-3.374-1.379-2.345-1.201-6.115-3.218-11.724-6.6-6.317-3.841-9.873-6.304-11.89-7.735-2.009-1.444-2.46-1.89-2.348-2.049.117-.164.648.12 2.674 1.48 2.034 1.347 5.548 3.806 11.848 7.642 5.913 3.566 9.709 5.558 11.95 6.792 2.247 1.226 2.956 1.668 2.864 1.849z"/><path d="m354.585 213.404c-.031.094-.378.042-1.152-.189-.387-.116-.88-.276-1.493-.485-.61-.216-1.313-.547-2.158-.909-1.681-.741-3.813-1.885-6.389-3.595-2.565-1.724-5.514-4.127-8.597-7.502-3.439-3.852-5.574-7.381-7.061-10.24-.706-1.453-1.312-2.715-1.728-3.856-.473-1.117-.779-2.096-1.03-2.922-.554-1.636-.696-2.719-.828-3.352-.107-.641-.089-.867.008-.888s.216.165.419.762c.102.298.224.7.374 1.229.135.534.344 1.184.625 1.977.268.797.567 1.752 1.04 2.841.231.546.446 1.149.738 1.773.299.621.62 1.286.963 2 1.451 2.808 3.544 6.281 6.914 10.098 3.204 3.527 6.259 5.931 8.824 7.676 1.321.815 2.45 1.591 3.524 2.126.527.285 1.017.55 1.472.797.458.241.901.423 1.298.615 1.585.778 2.687 1.171 3.351 1.479.669.303.917.471.886.565z"/><path d="m367.724 230.748c.085-.023.184.081.311.349l.381.802-.712-.632c-.765-.679-2.67-2.989-6.587-8.18-5.636-7.586-6.462-8.967-6.164-9.172.353-.246 1.072 1.117 6.696 8.692 4.066 5.386 5.913 7.54 6.381 8.396l-.398.204c-.033-.302.002-.434.092-.459z"/><path d="m394.499 231.344c-.157.125-.748-.485-2.178-2.186-.719-.847-1.646-1.968-2.895-3.348-.626-.688-1.336-1.438-2.154-2.234-.807-.799-1.805-1.628-2.631-2.828-.912-1.365-1.331-2.749-1.746-3.925-.406-1.186-.764-2.234-1.081-3.159-.619-1.854-1.074-3.216-1.406-4.207-.637-1.992-.72-2.523-.533-2.587s.431.387 1.136 2.332c.341.977.811 2.322 1.453 4.16.316.921.674 1.966 1.08 3.15.413 1.177.82 2.515 1.642 3.768.778 1.161 1.802 2.004 2.658 2.854.864.843 1.603 1.629 2.244 2.344 1.282 1.432 2.192 2.567 2.864 3.42 1.335 1.715 1.699 2.324 1.547 2.446z"/><path d="m308.778 156.675c-.111.201-1.782-.717-6.363-2.79-2.292-1.034-5.331-2.315-9.256-3.917-3.913-1.625-8.749-3.517-14.341-6.405-3.145-1.646-5.871-3.317-8.165-5.022-1.14-.811-2.322-1.672-2.907-2.956-.546-1.289-.481-2.511-.608-3.597-.354-4.413-.613-7.653-.803-10.012-.351-4.721-.358-5.923-.16-5.939.197-.017.377 1.118.803 5.782.201 2.333.478 5.547.856 9.941.121 1.091.093 2.309.499 3.38.412 1.071 1.444 1.905 2.589 2.716 2.251 1.691 4.946 3.34 8.058 4.986 5.857 3.041 10.874 4.969 14.861 6.637 4.003 1.639 7.027 2.94 9.249 3.999 4.448 2.119 5.77 3.055 5.688 3.197z"/><path d="m319.21 162.653c-.15.366-.738.103-2.693-.698-2.206-.904-2.588-1.038-2.438-1.404s.486-.166 2.693.738c2.068.847 2.588.998 2.438 1.364z"/><path d="m189.351 206.418c-.159.128-.687-.403-1.989-1.875-1.308-1.464-3.376-3.892-6.837-7.334-3.93-3.863-6.437-5.895-7.824-7.109-1.4-1.202-1.716-1.556-1.591-1.715.12-.152.531.051 1.975 1.185 1.431 1.147 3.929 3.195 7.89 7.08 3.683 3.662 5.779 6.119 6.999 7.604 1.211 1.495 1.527 2.044 1.377 2.164z"/><path d="m218.601 231.189c-.134.134-1.042-.602-3.183-2.805-2.121-2.218-5.519-5.882-10.094-11.999-1.283-1.732-2.399-3.29-3.515-4.581-1.107-1.295-2.201-2.328-3.269-3.085-2.154-1.518-4.113-1.849-5.498-1.886-1.402-.034-2.289.105-2.826.133-.537.041-.73.012-.75-.087-.02-.095.135-.205.654-.349.52-.131 1.404-.338 2.869-.352 1.44-.011 3.59.314 5.873 1.9 1.141.777 2.271 1.858 3.414 3.173 1.142 1.318 2.277 2.892 3.55 4.616 4.812 6.436 8.253 10.064 10.251 12.267 2.026 2.182 2.669 2.91 2.524 3.055z"/><path d="m442.905 186.262c-.253.297-1.603-.846-5.702-4.842-2.311-2.249-3.661-3.563-4.435-4.316-.381-.377-.611-.617-.73-.772-.063-.08-.086-.129-.099-.179.025-.031.005-.09-.021-.131-.028-.038-.002-.106.119-.107.063-.01.16.01.257.053.205.089.485.286.896.637.823.7 2.162 2.02 4.478 4.273 4.336 4.221 5.502 5.076 5.237 5.384z"/><path d="m451.67 194.493c-.28.28-.558-.027-1.516-.986-1.082-1.082-1.28-1.251-1-1.531s.414-.064 1.497 1.019c1.014 1.015 1.299 1.219 1.019 1.498z"/><path d="m228.25 159.831c.226.325-1.683 1.627-7.906 5.954-7.025 4.884-8.204 5.729-8.43 5.404s.945-1.069 7.975-5.956c6.581-4.576 8.135-5.727 8.361-5.402z"/><path d="m472.093 211.514c.173.088.16.34-.101.898-.264.555-.765 1.424-1.693 2.639-1.06 1.362-1.796 2.063-2.238 2.433-.449.365-.623.387-.754.241-.133-.149-.084-.299.293-.705.37-.41 1.091-1.068 2.119-2.385.949-1.244 1.411-2.102 1.727-2.588.313-.49.468-.624.647-.533z"/><path d="m346.575 216.267c.206-.005.289.405.41 1.478.131 1.069.271 2.822.935 5.421.785 2.925 1.573 4.525 1.956 5.46.402.931.452 1.197.273 1.293-.17.091-.373-.084-.853-.99-.46-.912-1.247-2.549-2.057-5.542-.719-2.812-.863-4.621-.914-5.691-.034-1.075.059-1.425.25-1.429z"/><path d="m167.617 221.968c.2.036.237.29.202.924-.028.633-.147 1.66-.033 3.232.153 1.773.466 2.773.583 3.357.13.582.1.755-.09.822-.184.065-.32-.045-.533-.623-.199-.578-.507-1.625-.67-3.475-.127-1.734-.007-2.817.101-3.449.119-.634.25-.822.44-.788z"/><path d="m303.316 190.697c-.058.08-.414-.097-1.173-.603-.762-.501-1.929-1.33-3.54-2.638-3.195-2.623-8.386-7.015-14.795-15.117-7.105-9.249-9.949-15.539-11.595-19.046-1.575-3.565-1.801-4.537-1.639-4.601.204-.083.582.779 2.196 4.25.411.864.886 1.898 1.517 3.092.598 1.21 1.349 2.578 2.231 4.15 1.795 3.123 4.217 7.016 7.754 11.595 6.728 8.508 11.986 12.813 15.028 15.402 1.552 1.273 2.581 2.116 3.223 2.643.631.539.851.793.793.873z"/><path d="m314.878 188.307c-.079.17-1.181-.214-3.951-1.532-2.762-1.33-7.216-3.562-13.757-7.483-7.359-4.465-11.425-7.448-13.737-9.162-2.299-1.736-2.813-2.264-2.697-2.416.123-.163.719.202 3.031 1.851 2.325 1.627 6.339 4.598 13.671 9.057 6.891 4.131 11.374 6.327 14.02 7.686 2.656 1.345 3.508 1.812 3.42 1.999z"/><path d="m322.681 183.1c-.154.342-3.13-.943-12.714-5.535-10.788-5.246-12.562-6.246-12.394-6.573.193-.377 1.848.65 12.63 5.896 10.125 4.847 12.652 5.831 12.478 6.212z"/><path d="m471.368 193.373c-.058.158-1.529-.193-5.072-1.924-1.763-.876-4.027-2.126-6.794-3.94-2.78-1.79-6.012-4.228-9.88-7.165-4.363-3.32-8.202-5.352-11.368-6.634-3.161-1.294-5.598-1.933-7.372-2.36-3.564-.806-4.498-.883-4.468-1.116.017-.161.936-.262 4.533.461 1.789.386 4.251 1.009 7.455 2.305 3.198 1.281 7.129 3.34 11.527 6.682 4.11 3.12 7.429 5.611 10.253 7.419 2.807 1.826 5.034 3.049 6.717 3.922 3.386 1.712 4.553 2.137 4.469 2.35z"/><path d="m473.383 188.681c-.04-.034.026-.232.298-.105.112.07.191.192.223.36.012.086.022.184-.035.316-.04.136-.265.281-.434.252l-.049-.008-.052-.023c-1.042-.452-3.074-1.555-6.726-3.519-6.478-3.485-7.586-4.058-7.398-4.406.187-.348 1.209.267 7.692 3.755 3.767 2.027 5.77 3.079 6.702 3.669l-.115-.002c-.122.163-.038-.129-.046-.126.05-.047-.029-.097-.06-.163z"/><path d="m450.304 162.833c-.138.371-1.865-.256-7.557-2.25-6.424-2.251-7.519-2.613-7.396-2.989s1.148.044 7.588 2.301c6.029 2.112 7.503 2.567 7.365 2.938z"/><path d="m455.576 166.335c-.176.354-.536.152-1.745-.451-1.364-.68-1.605-.777-1.428-1.132.177-.354.372-.192 1.737.489 1.278.637 1.612.739 1.436 1.094z"/><path d="m290.254 231.713c-.204.384-2.374-.965-9.938-4.506-4.285-1.965-6.845-2.989-8.288-3.628-1.447-.632-1.786-.861-1.713-1.047.072-.182.46-.125 1.926.428 1.463.561 4.011 1.6 8.315 3.572 4.023 1.859 6.474 3.11 7.918 3.891 1.442.787 1.871 1.117 1.78 1.29z"/><path d="m204.75 175.548c.276.283-.047.571-1.063 1.563-1.147 1.12-1.327 1.324-1.603 1.041s-.05-.423 1.097-1.544c1.074-1.048 1.292-1.343 1.569-1.06z"/><path d="m139.941 213.209c-.074.184-1.232-.179-4.217-1.327-.745-.29-1.605-.626-2.593-1.011-.493-.195-1.017-.402-1.575-.623-.56-.214-1.146-.506-1.631-.411-.461.064-.896.688-1.412 1.23-.507.552-1.039 1.132-1.599 1.743-1.127 1.213-2.375 2.534-3.767 3.956-6.292 6.415-10.272 9.859-12.547 11.822-2.298 1.94-2.952 2.344-3.075 2.199-.132-.156.381-.675 2.596-2.647 2.191-1.996 6.151-5.389 12.431-11.785 1.467-1.498 2.771-2.879 3.937-4.138.58-.633 1.129-1.232 1.648-1.799.264-.28.49-.566.805-.845.299-.279.773-.488 1.199-.466.853.052 1.396.407 1.966.602.561.226 1.086.438 1.577.636.98.4 1.822.743 2.543 1.038 2.879 1.187 3.788 1.642 3.714 1.826z"/><path d="m509.362 171.959c.275.285-.92 1.409-4.792 5.148-4.371 4.22-5.098 4.949-5.372 4.665-.275-.285.473-.927 4.848-5.149 4.093-3.954 5.041-4.949 5.316-4.664z"/><path d="m630.04 182.542c.011.188-1.783.409-6.541.666-4.757.232-12.483.591-24.329.339-13.37-.359-21.153-1.276-25.594-1.805-4.44-.569-5.546-.839-5.521-1.025.028-.206 1.108-.12 5.499.365 4.392.445 12.105 1.378 25.453 1.749 12.497.265 20.253-.147 24.882-.294 4.629-.178 6.139-.2 6.151.005z"/><path d="m586.405 176.138c-.228.085-.447-.733-1.626-2.518-.605-.874-1.482-1.992-2.897-3.102-1.401-1.101-3.384-2.216-6.007-2.617-2.976-.395-5.359.314-7.05 1.067-1.708.784-2.795 1.661-3.541 2.326-1.45 1.385-1.726 1.84-1.918 1.703-.081-.057-.064-.197.128-.536.19-.339.568-.875 1.31-1.611.748-.722 1.869-1.666 3.657-2.498 1.768-.809 4.268-1.562 7.432-1.172 2.95.435 5.094 1.706 6.588 2.898 1.488 1.232 2.387 2.418 2.954 3.349 1.099 1.903 1.119 2.669.97 2.711z"/><path d="m600.128 181.674c-.217.063-.379-.492-1.108-1.765-.745-1.242-2.275-3.214-5.565-4.996-1.851-.997-3.419-1.589-4.682-1.842-1.265-.258-2.211-.205-2.864-.072-.657.132-1.045.306-1.293.387-.245.088-.364.075-.42-.006s-.023-.185.188-.373c.211-.182.619-.441 1.347-.636.724-.194 1.78-.277 3.131-.008 1.355.259 2.978.876 4.883 1.897 3.591 1.935 5.224 4.104 5.909 5.451.674 1.383.636 1.924.474 1.963z"/><path d="m611.816 183.271c-.147.144-.48-.102-1.312-.768-.839-.644-2.186-1.771-4.618-2.82-2.766-1.148-4.557-1.064-5.514-1.006-.972.092-1.233.12-1.292-.084-.054-.174.156-.379 1.193-.562 1.019-.151 2.963-.217 5.851.978 2.678 1.153 4.085 2.35 4.88 3.062.783.741.949 1.068.812 1.2z"/><path d="m622.763 186.719c-.025.424-2.631.138-11.214-.051-9.69-.113-11.331.091-11.34-.343-.01-.357 1.565-.482 11.287-.371 9.099.205 11.29.404 11.267.765z"/><path d="m639.064 185.476c.026.395-.702.422-3.084.579-2.69.177-3.144.227-3.17-.167-.026-.395.414-.366 3.105-.543 2.519-.166 3.123-.264 3.149.131z"/><path d="m637.051 191.232c.031.364-1.962.622-8.532.818-3.708.083-5.877.034-7.117-.033-1.24-.074-1.55-.181-1.544-.377.007-.199.308-.27 1.531-.276 1.223-.012 3.369.056 7.063-.024 6.915-.213 8.565-.538 8.599-.108z"/><path d="m373.392 145.414c.211.325-.05.74-1.024 1.412-.976.662-2.657 1.611-5.396 2.672-3.105 1.165-5.025 1.537-6.123 1.677-1.105.122-1.41-.033-1.471-.419-.062-.395.172-.592 1.195-.859 1.017-.284 2.856-.599 5.848-1.715 2.788-1.08 4.382-2.046 5.374-2.536.99-.502 1.378-.57 1.597-.232z"/><path d="m442.955 211.774c.329.196.328.622-.177 1.468-.512.829-1.513 2.118-3.487 3.56-2.26 1.584-3.854 2.056-4.744 2.251-.909.171-1.176.015-1.257-.363-.085-.394.087-.587.865-.883.761-.319 2.205-.703 4.277-2.143 1.907-1.394 2.766-2.609 3.338-3.258.563-.667.837-.841 1.185-.632z"/><path d="m276.261 208.27c.256.749-.898 1.1-4.642 2.378-4.225 1.443-4.928 1.726-5.184.977s.466-.873 4.695-2.317c3.959-1.351 4.876-1.787 5.131-1.038z"/><path d="m113.587 215.482c.288.261.054.821-.935 1.972-.994 1.143-2.726 2.898-5.622 5.308-3.289 2.696-5.387 4.049-6.62 4.757-1.244.695-1.653.712-1.857.378-.208-.341-.002-.654 1.121-1.458 1.112-.817 3.175-2.1 6.403-4.74 3.001-2.497 4.667-4.263 5.726-5.248 1.053-.994 1.487-1.239 1.784-.969z"/><path d="m419.555 314.673c-.045-.176.209-.425.933-.589.708-.144 1.945-.233 3.523.417.782.322 1.644.824 2.464 1.608.81.781 1.586 1.878 1.969 3.299.386 1.413.316 3.099-.324 4.746-.645 1.626-1.881 3.286-3.832 4.252-.532.276-1.15.474-1.71.561-.589.09-1.055.14-1.66.125-1.153-.076-2.098-.423-2.962-.85-1.71-.871-2.926-2.265-3.482-3.693-.591-1.426-.564-2.795-.455-3.863.12-1.088.389-2.003.729-2.727.688-1.462 1.557-2.117 2.07-2.398.534-.281.784-.229.88-.069.108.176.017.372-.311.754-.314.39-.912.962-1.417 2.177-.25.604-.462 1.373-.559 2.324-.091.956-.111 2.049.345 3.176.429 1.116 1.334 2.249 2.757 2.995.696.377 1.532.661 2.366.745.348.024.914-.021 1.351-.085.471-.075.892-.18 1.33-.407 1.665-.778 2.747-2.251 3.272-3.663.544-1.432.51-2.847.166-3.971-.358-1.131-1.022-2-1.709-2.628-.688-.634-1.402-1.042-2.037-1.31-1.283-.528-2.224-.57-2.802-.62-.581-.041-.847-.104-.895-.306z"/><path d="m551.498 417.915c0 .098-1.368.183-4.325.257s-7.503.137-13.86.19v-.825c22.168-.142 66.484-.125 142.233.002v1.399c-56.073-.022-129.533-.052-224.084-.09-166.313-.119-263.562-.189-319.233-.229-27.835-.057-45.276-.135-55.758-.247-5.241-.056-8.742-.121-10.933-.197s-3.072-.162-3.072-.261.842-.183 2.965-.255 5.528-.13 10.655-.178c10.252-.096 27.39-.147 54.929-.169 55.079.019 151.767.052 318.201.109 96.566.044 170.423.078 226.329.104v1.426c-77.561-.169-120.714-.306-142.233-.516v-.973c6.54.051 11.087.112 13.998.187 2.912.075 4.188.163 4.188.266z"/><path d="m147.729 338.591c.195-.033.43.595.749 2.105.294 1.51.621 3.919.63 7.431-.016 3.502-.311 8.139-1.712 13.877-1.356 5.738-3.806 12.571-7.945 20.215-4.716 8.608-9.449 14.809-13.315 19.55-3.905 4.723-7.022 7.972-9.341 10.28-4.684 4.575-6.093 5.489-6.341 5.218-.288-.311.821-1.436 5.309-6.033 2.221-2.32 5.275-5.528 9.123-10.191 3.815-4.675 8.513-10.788 13.185-19.275 4.336-7.962 6.764-14.951 8.083-20.689 1.322-5.749 1.613-10.237 1.657-13.571.01-3.34-.159-5.554-.248-6.935-.093-1.382-.029-1.949.166-1.982z"/><path d="m251.983 274.444c.194.365-2.887 2.168-11.101 6.772-8.201 4.624-21.577 11.991-41.556 24.173-22.509 13.819-35.249 22.563-42.622 27.439-7.35 4.914-9.278 6.065-9.51 5.731-.22-.316 1.424-1.701 8.615-6.702 7.215-4.962 19.92-13.639 42.468-27.499 21.155-12.899 34.632-20.317 42.705-24.685 8.089-4.343 10.823-5.565 11.001-5.229z"/><path d="m370.156 347.714c-.169.306-1.64-.183-4.43-2.777-1.4-1.277-3.022-3.138-5.227-5.294-1.119-1.078-2.372-2.159-3.977-3.201-1.717-1.299-3.008-2.979-4.452-4.84-12.175-17.224-11.191-22.189-10.517-21.998.471.02.381.77 1.634 3.924.661 1.563 1.637 3.71 3.198 6.546 1.576 2.819 3.65 6.397 6.742 10.557 1.449 1.904 2.885 3.678 4.315 4.72 1.748 1.122 3.134 2.365 4.291 3.501 2.294 2.303 3.862 4.128 5.14 5.378 2.53 2.509 3.52 3.106 3.283 3.484z"/><path d="m400.012 365.374c-.281.3-1.281-.432-3.782-2.495-2.512-2.048-6.542-5.429-13.146-10.073-3.731-2.613-6.754-4.595-9.144-6.158-1.197-.78-2.234-1.457-3.133-2.043-.44-.284-.883-.589-1.216-.791-.35-.205-.542-.255-.804-.235-.547.048-1.134.341-1.621.507-.493.178-.973.283-1.377.198-.405-.087-.617-.328-.66-.479-.053-.159-.018-.246.059-.308.161-.141.378-.028.654-.102.15-.033.416-.131.829-.345.43-.197.931-.567 1.887-.759.482-.104 1.166.026 1.615.294.473.258.841.512 1.306.798.9.575 1.941 1.24 3.143 2.008 2.395 1.553 5.42 3.546 9.178 6.176 7.026 4.942 11.14 8.371 13.5 10.514 2.357 2.154 2.972 3.016 2.712 3.293z"/><path d="m395.16 345.372c.506.608-.687 1.547-4.515 4.729-4.321 3.592-5.027 4.232-5.533 3.623s.268-1.102 4.592-4.696c4.048-3.364 4.95-4.265 5.456-3.656z"/><path d="m458.961 345.991c.061.188-.342.463-1.356.883-.507.21-1.166.457-1.995.747-.831.284-1.848.556-3.047.897-2.402.667-5.598 1.372-9.74 2.03-4.144.641-9.257 1.132-15.456 1.146-6.999-.034-12.521-.71-16.839-1.418-2.155-.391-4.022-.737-5.617-1.137-1.607-.35-2.944-.729-4.067-1.058-2.258-.616-3.616-1.191-4.429-1.534-.807-.364-1.042-.59-.979-.777.063-.188.376-.238 1.22-.08.851.135 2.204.579 4.43 1.104 1.108.28 2.419.634 3.997.957.788.166 1.631.376 2.55.549.921.168 1.908.347 2.966.539 4.241.697 9.676 1.373 16.583 1.431 12.954-.058 20.836-2.072 25.48-3.129 2.335-.539 3.861-.98 4.84-1.167.979-.191 1.398-.171 1.459.017z"/><path d="m450.758 338.118c.336.194.277.706-.319 1.816-.603 1.103-1.723 2.822-3.755 5.201-2.318 2.664-3.903 4.01-4.846 4.717-.958.695-1.314.724-1.557.418-.249-.313-.129-.611.689-1.395.804-.796 2.352-2.058 4.603-4.635 2.08-2.436 3.121-4.138 3.819-5.097.69-.967 1.018-1.226 1.366-1.025z"/><path d="m503.587 305.753c.223.315-1.142 1.54-5.061 4.34-3.925 2.787-10.384 7.183-20.583 13.443-11.537 7.026-18.503 10.763-22.515 12.845-4.025 2.06-5.133 2.409-5.313 2.064-.186-.356.71-.998 4.607-3.168 3.883-2.192 10.807-5.858 22.322-12.862 10.753-6.599 17.193-11.06 21.091-13.638 3.89-2.596 5.218-3.354 5.452-3.024z"/><path d="m553.559 342.774c-.193.341-1.9-.394-6.19-2.737-2.145-1.172-4.933-2.752-8.474-4.849-3.536-2.104-7.824-4.735-12.856-8.17-11.344-7.804-17.089-13.586-20.221-16.953-1.59-1.673-2.44-2.855-2.948-3.561-.493-.721-.574-1.032-.423-1.16s.443-.011 1.074.553c.65.548 1.562 1.614 3.172 3.193 3.17 3.18 8.75 8.878 19.999 16.648 5.279 3.607 9.717 6.298 13.302 8.447 3.609 2.118 6.347 3.726 8.395 4.928 4.096 2.414 5.366 3.314 5.17 3.661z"/><path d="m614.075 385.839c-.158.119-.705-.327-1.784-1.492-.541-.582-1.209-1.348-2.038-2.307-.872-.921-1.918-2.026-3.156-3.333-1.255-1.289-2.764-2.724-4.485-4.377-1.785-1.588-3.766-3.416-6.129-5.322-4.67-3.874-10.637-8.288-17.991-13.477-8.309-5.848-14.857-10.586-19.806-14.627-2.503-1.985-4.555-3.855-6.361-5.436-.868-.831-1.668-1.598-2.406-2.304-.367-.355-.718-.696-1.055-1.022-.24-.232-.156-.155-.19-.191-.017-.015-.034.008-.061.016-5.862 3.457-7.431 4.191-7.637 3.853s1.114-1.337 6.831-4.892c.308-.19.624-.384.947-.583.098-.115.168.037.248.094l.238.224c.146.137.293.276.443.417.335.314.684.642 1.049.984.729.687 1.519 1.432 2.377 2.241 1.793 1.536 3.806 3.38 6.285 5.337 4.891 3.994 11.379 8.711 19.698 14.566 7.783 5.49 14.013 10.094 18.795 14.114 2.426 1.966 4.421 3.866 6.204 5.487.856.851 1.651 1.643 2.39 2.378.746.728 1.416 1.419 1.996 2.094 1.176 1.332 2.18 2.416 2.937 3.368.74.967 1.308 1.735 1.729 2.336.841 1.203 1.09 1.735.932 1.854z"/><path d="m596.471 361.986c.265.746-.413.943-2.59 1.715-2.458.872-2.861 1.058-3.125.312s.172-.778 2.632-1.651c2.302-.816 2.818-1.121 3.083-.376z"/><path d="m638.339 378.282c-.001.198-.331.333-1.099.417-.769.09-1.977.128-3.724.014-3.469-.249-9.215-.858-17.383-3.917-4.585-1.772-8.018-3.647-10.643-5.243-1.299-.824-2.421-1.544-3.347-2.236-.949-.658-1.71-1.27-2.344-1.793-2.526-2.106-2.979-2.846-2.731-3.121.279-.314.939.127 3.477 2.046.64.473 1.388 1.051 2.321 1.675.91.656 2.001 1.356 3.271 2.151 2.557 1.554 5.902 3.393 10.383 5.145 8.454 3.166 14.12 3.632 17.409 4.015 1.659.188 2.764.252 3.452.378.687.122.96.272.958.469z"/><path d="m660.565 416.501c-.371.172-1.052-.926-2.632-3.915-1.595-2.978-4.05-7.885-8.478-15.021-5.049-8.023-8.486-12.387-10.34-14.961-1.882-2.556-2.261-3.286-1.947-3.541.301-.245.934.235 2.937 2.685 1.974 2.468 5.391 6.865 10.493 14.952 4.72 7.605 7.216 12.581 8.638 15.574 1.403 3.006 1.678 4.066 1.329 4.227z"/><path d="m297.184 296.537c-.079.388-1.607.232-5.565-.578-1.979-.405-4.564-.974-7.878-1.72-3.312-.738-7.35-1.731-12.15-3.339-5.408-1.845-9.469-4.046-12.375-6.19-2.921-2.135-4.719-4.149-5.899-5.68-1.178-1.543-1.715-2.65-1.992-3.324-.256-.689-.241-.966-.066-1.057.176-.091.411.045.827.594.434.537 1.04 1.501 2.201 2.911 1.166 1.397 2.874 3.276 5.66 5.327 2.778 2.048 6.661 4.2 11.964 6.021 2.48.854 4.774 1.501 6.859 2.054 2.084.561 3.969 1.004 5.654 1.376 3.366.768 5.919 1.36 7.822 1.829 3.808.939 5.018 1.388 4.938 1.776z"/><path d="m321.855 330.944c-.605.465-3.715-3.483-13.495-16.751-10.962-15.032-12.693-17.671-12.076-18.104.678-.476 2.199 2.134 13.151 17.159 10.331 14.008 13.074 17.196 12.42 17.696z"/><path d="m341.658 309.27c.198.313-.461 1.018-2.598 2.259-2.139 1.206-5.763 3.045-11.731 4.525-6.764 1.563-10.891 1.42-13.189 1.312-2.314-.168-2.875-.447-2.841-.824.036-.409.597-.493 2.827-.483 2.215-.049 6.192.134 12.78-1.368 6.138-1.523 9.633-3.407 11.728-4.417 2.09-1.051 2.804-1.358 3.024-1.004z"/><path d="m121.762 375.947c-.245-.752 2.204-1.507 10.199-4.112 9.024-2.94 10.54-3.477 10.785-2.725.245.753-1.252 1.119-10.283 4.061-8.453 2.754-10.456 3.528-10.701 2.776z"/><path d="m121.29 374.96c.609.505-3.563 5.465-17.148 21.826-3.825 4.619-6.879 8.284-9.426 11.072-2.537 2.796-4.531 4.739-6.033 6.095-3.034 2.687-4 3.127-4.234 2.839-.266-.325.427-1.007 3.275-3.73 1.412-1.375 3.339-3.293 5.838-6.053 2.508-2.753 5.547-6.381 9.379-11.008 14.365-17.301 17.741-21.547 18.349-21.041z"/><path d="m348.364 286.462c.006.396-4.44.447-19.027.681-16.465.265-19.255.33-19.262-.066-.006-.396 2.662-.381 19.139-.645 15.424-.248 19.143-.365 19.15.03z"/><path d="m405.785 286.653c.009.192-1.375.36-5.041.527-3.666.159-9.616.341-18.737.303-10.295-.068-16.311-.35-19.751-.54-3.44-.204-4.305-.354-4.295-.548.011-.201.847-.232 4.249-.108 3.402.109 9.374.41 19.661.483 9.631.04 15.605-.175 19.173-.253 3.568-.089 4.732-.066 4.741.136z"/><path d="m350.771 277.292c-.09.05-.288-.171-.682-.7-.402-.522-1.011-1.363-2.095-2.388-1.074-1.018-2.651-2.248-4.991-3.143-2.315-.872-5.51-1.305-9.065-.208-1.994.62-3.626 1.602-4.895 2.683-1.276 1.086-2.218 2.254-2.99 3.32-1.512 2.161-2.446 3.9-3.053 5.157-.596 1.272-.822 2.118-.977 2.624-.148.508-.224.682-.329.671-.092-.01-.16-.193-.112-.734.051-.537.225-1.442.795-2.77.588-1.321 1.498-3.057 3.035-5.278.783-1.097 1.753-2.307 3.077-3.459 1.324-1.149 3.038-2.186 5.123-2.857 3.933-1.249 7.439-.705 9.897.286 2.493 1.007 4.079 2.361 5.138 3.431 1.044 1.104 1.578 1.966 1.874 2.513.279.56.335.806.25.852z"/><path d="m376.991 283.449c-.25.037-.282-1.209-1.37-4.187-.571-1.47-1.461-3.376-3.125-5.456-1.651-2.061-4.133-4.325-7.802-5.78-4.154-1.616-7.821-1.553-10.528-1.088-2.743.464-4.591 1.415-5.769 2.264-1.181.867-1.718 1.628-2.054 2.061-.326.447-.459.598-.556.553-.084-.038-.084-.242.164-.765.258-.506.777-1.371 2.001-2.329 1.213-.949 3.154-1.96 5.982-2.467 2.798-.499 6.588-.584 10.906 1.065 4.035 1.57 6.683 4.07 8.393 6.267 1.716 2.232 2.576 4.221 3.103 5.718.514 1.511.661 2.565.736 3.214.049.656.017.918-.081.93z"/><path d="m389.478 286.832c-.208.057-.369-.409-.917-1.55-.282-.565-.672-1.302-1.312-2.151-.637-.846-1.534-1.811-2.84-2.68-1.487-.965-2.855-1.389-3.933-1.622-1.087-.226-1.906-.26-2.499-.275-1.188-.003-1.501-.002-1.533-.212-.029-.18.251-.36 1.495-.44.62-.025 1.486-.011 2.637.221 1.143.236 2.592.685 4.183 1.704 1.476.974 2.451 2.051 3.133 2.971.674.933 1.068 1.72 1.314 2.323.473 1.218.448 1.666.272 1.711z"/><path d="m388.402 291.017c0 .396-2.234.375-9.563.375-8.272 0-9.674.02-9.674-.375 0-.396 1.34-.338 9.619-.338 7.749 0 9.618-.058 9.618.338z"/><path d="m395.052 290.542c0 .396-.276.375-1.181.375-1.021 0-1.194.02-1.194-.375 0-.396.165-.338 1.188-.338.956 0 1.187-.058 1.187.338z"/><path d="m346.84 290.779c0 .396-.579.375-2.479.375-2.145 0-2.508.02-2.508-.375 0-.396.347-.338 2.494-.338 2.008 0 2.493-.057 2.493.338z"/><path d="m360.613 290.821c-.024.395-.574.34-2.383.228-2.041-.126-2.388-.127-2.364-.522s.352-.317 2.394-.19c1.913.119 2.378.089 2.353.484z"/><path d="m192.519 389.776c.255.287-.682 1.407-3.531 3.949-2.859 2.528-7.605 6.517-15.28 12.099-8.695 6.257-14.07 9.496-17.167 11.296-3.115 1.776-4.002 2.053-4.197 1.718-.202-.348.468-.914 3.453-2.795 2.967-1.905 8.299-5.071 16.959-11.289 8.071-5.869 12.773-9.911 15.641-12.242 2.856-2.348 3.853-3.04 4.122-2.736z"/><path d="m223.842 403.074c-.043.391-1.073.478-3.76.261-1.343-.114-3.103-.299-5.355-.641-2.249-.349-5-.843-8.255-1.792-3.673-1.089-6.451-2.394-8.534-3.605-2.084-1.219-3.48-2.336-4.432-3.21-1.876-1.789-2.1-2.468-1.826-2.71.315-.284.778.117 2.637 1.683.945.764 2.27 1.801 4.258 2.957 1.985 1.153 4.644 2.421 8.204 3.489 3.341.979 6.144 1.456 8.402 1.815 2.263.345 3.993.557 5.286.742 2.586.364 3.418.616 3.375 1.011z"/><path d="m266.5 361.326c.266.308-1.442 1.996-6.116 6.256-4.662 4.272-12.327 11.088-23.601 22.038-12.688 12.399-19.733 20.019-23.86 24.288-4.106 4.29-5.245 5.288-5.543 5.017-.287-.262.544-1.451 4.498-5.812 3.975-4.34 11.021-11.908 23.737-24.347 11.945-11.603 19.665-18.481 24.319-22.53 4.669-4.035 6.314-5.202 6.566-4.91z"/><path d="m302.318 375.346c-.042.39-1.222.464-4.304.205-1.541-.135-3.559-.347-6.141-.732-2.579-.391-5.733-.94-9.471-1.981-4.218-1.194-7.425-2.614-9.844-3.932-2.42-1.326-4.061-2.541-5.19-3.491-2.231-1.946-2.549-2.684-2.288-2.938.303-.3.843.148 3.052 1.875 1.121.842 2.69 1.982 5.017 3.251 2.324 1.266 5.416 2.655 9.529 3.832 3.858 1.08 7.082 1.614 9.679 2.017 2.602.388 4.59.627 6.075.832 2.972.402 3.929.666 3.886 1.062z"/><path d="m320.114 398.402c-.269.281-1.023-.161-2.676-1.684-1.646-1.529-4.212-4.122-7.882-8.33-4.121-4.769-6.325-7.731-7.524-9.466-1.187-1.746-1.337-2.293-1.02-2.522.324-.234.75.085 2.04 1.704 1.302 1.609 3.44 4.55 7.525 9.285 3.848 4.412 6.443 6.957 7.924 8.543 1.489 1.578 1.891 2.18 1.613 2.47z"/><path d="m324.943 391.153c.035.384-.397.634-1.596.765-1.195.118-3.167.15-6.124-.325-3.331-.579-5.193-1.313-6.213-1.788-1.017-.499-1.193-.799-1.034-1.155.163-.367.469-.401 1.486-.071 1.021.307 2.767 1.039 5.95 1.6 2.988.48 4.875.387 5.993.428 1.122.027 1.503.144 1.538.546z"/><path d="m350.462 417.92c-.244.299-1.202-.211-3.395-1.976-2.184-1.774-5.632-4.778-10.531-9.775-5.496-5.673-8.4-9.278-10.007-11.374-1.589-2.113-1.838-2.765-1.53-3.004.317-.246.829.161 2.509 2.137 1.698 1.958 4.527 5.535 9.974 11.169 5.135 5.239 8.614 8.185 10.623 10.015 2.021 1.819 2.612 2.496 2.357 2.808z"/><path d="m483.702 381.606c.159.118.014.546-.51 1.407-.52.864-1.418 2.16-2.848 3.945-2.867 3.543-7.706 9.245-16.488 16.481-10.016 8.042-16.779 11.484-20.582 13.43-3.862 1.877-4.95 2.109-5.105 1.77-.175-.379.714-.916 4.421-2.887 3.65-2.04 10.308-5.376 20.233-13.308 9.179-7.563 13.892-13.313 16.766-16.627 1.438-1.668 2.351-2.806 2.988-3.466.633-.661.966-.863 1.125-.745z"/><path d="m507.699 387.499c.022.379-.712.646-2.693.741-1.975.075-5.219.035-10.068-.875-5.46-1.095-8.493-2.372-10.181-3.137-1.681-.803-2.015-1.194-1.851-1.542.172-.367.635-.312 2.314.32 1.686.595 4.598 1.867 9.916 2.946 4.992.937 8.165.9 10.038.98 1.879.055 2.502.159 2.525.567z"/><path d="m525.478 406.291c-.257.295-.967-.062-2.542-1.355-1.57-1.298-4.016-3.519-7.602-7.09-4.034-4.044-6.265-6.534-7.48-8.011-1.208-1.484-1.379-1.976-1.083-2.234.3-.262.725-.022 2.028 1.332 1.311 1.346 3.483 3.829 7.488 7.85 3.765 3.749 6.24 5.929 7.654 7.299 1.421 1.366 1.799 1.908 1.537 2.209z"/><path d="m536.629 400.103c.075.376-.44.698-1.921.994-1.477.279-3.93.577-7.675.35-4.224-.312-6.631-1.014-7.965-1.465-1.333-.482-1.602-.793-1.477-1.159.129-.382.495-.418 1.808-.105 1.316.283 3.601.993 7.673 1.303 3.816.231 6.178-.124 7.585-.237 1.41-.132 1.894-.079 1.972.319z"/><path d="m558.454 418.534c-.492.62-3.157-1.547-11.988-8.551-9.967-7.906-11.682-9.213-11.19-9.833s2.035.751 12.009 8.662c9.337 7.407 11.661 9.102 11.169 9.722z"/><path d="m566.132 403.41c.2.332-.192.81-1.5 1.636-1.312.815-3.53 2.008-7.11 3.407-4.054 1.545-6.542 2.112-7.968 2.366-1.434.235-1.831.109-1.906-.274-.078-.393.231-.614 1.582-.992 1.344-.397 3.762-.907 7.724-2.409 3.695-1.445 5.841-2.666 7.162-3.307 1.318-.654 1.808-.772 2.016-.427z"/><path d="m601.97 418.032c-.132.369-1.284.166-4.175-.798-2.89-.968-7.524-2.684-14.558-5.488-7.934-3.18-12.519-5.173-15.109-6.389-2.587-1.225-3.17-1.695-3.011-2.054.161-.364.859-.233 3.475.831 2.619 1.056 7.149 3.069 15.067 6.245 7.419 2.957 12.083 4.633 14.837 5.72 2.755 1.081 3.608 1.558 3.474 1.933z"/><path d="m157.404 401.249c.171.381-.781.962-3.334 2.386-1.28.706-2.95 1.65-5.089 2.88-2.14 1.232-4.734 2.782-7.943 4.573-3.623 2.021-6.624 3.433-9.061 4.393-1.23.455-2.295.854-3.248 1.115-.939.301-1.753.488-2.443.628-1.368.325-2.263.342-2.794.348-.536-.014-.729-.127-.756-.323s.117-.365.594-.552c.474-.21 1.3-.339 2.589-.727.648-.175 1.422-.37 2.319-.678.909-.267 1.937-.653 3.123-1.101 2.361-.934 5.294-2.297 8.888-4.294 3.361-1.876 6.048-3.494 8.248-4.747 2.205-1.248 3.897-2.173 5.203-2.792 2.603-1.257 3.551-1.453 3.704-1.109z"/><path d="m170.495 407.028c-.067.383-.55.504-1.748.339-1.195-.174-3.114-.611-5.943-1.618-3.183-1.164-4.944-2.099-5.908-2.695-.958-.611-1.107-.924-.914-1.264.198-.347.51-.353 1.503.097.998.435 2.672 1.37 5.76 2.505 2.901 1.033 4.78 1.405 5.878 1.718 1.1.304 1.441.523 1.372.918z"/><path d="m253.052 322.622c.192.337-.984 1.245-4.348 3.199-3.368 1.944-8.909 4.962-17.605 9.182-9.832 4.729-15.728 7.179-19.125 8.516-3.406 1.319-4.337 1.478-4.483 1.115-.15-.372.609-.846 3.907-2.291 3.288-1.463 9.143-3.851 18.948-8.56 9.161-4.445 14.684-7.522 18.026-9.272 3.337-1.763 4.48-2.238 4.68-1.889z"/><path d="m262.287 328.966c-.289.692-1.575.271-5.391-1.856-2.134-1.233-3.317-2.066-3.941-2.608-.62-.55-.672-.828-.438-1.144.236-.32.491-.336 1.178.067.691.396 1.808 1.23 3.882 2.432 1.95 1.112 3.229 1.665 3.953 2.078.728.408.914.665.757 1.031z"/><path d="m522.955 360.456c-.139.379-.877.284-2.742-.195-.935-.249-2.161-.575-3.733-.994-1.576-.435-3.516-.956-5.83-1.78-5.243-1.891-7.872-4.152-9.113-5.561-1.232-1.458-1.28-2.011-.976-2.219.344-.242.667.065 1.888 1.282 1.236 1.169 3.565 3.289 8.616 5.133 2.364.845 4.359 1.364 5.962 1.818 1.606.447 2.83.806 3.732 1.122 1.806.634 2.33 1.029 2.196 1.394z"/><path d="m534.326 373.72c-.316.244-.778-.061-1.708-1.08-.934-1.016-2.328-2.76-4.631-5.291-2.612-2.845-4.258-4.393-5.127-5.355-.875-.956-.992-1.313-.722-1.605.268-.289.618-.202 1.604.641.98.849 2.612 2.437 5.262 5.319 2.467 2.71 3.912 4.47 4.709 5.57.794 1.105.924 1.561.613 1.801z"/><path d="m202.525 345.496c.144.368-1.718 1.023-7.804 3.232-6.868 2.493-8.026 2.935-8.152 2.56s1.002-.723 7.863-3.213c6.422-2.332 7.949-2.947 8.093-2.579z"/><path d="m283.783 300.543c-.012.098-.336.121-1.08.06-.372-.031-.849-.083-1.443-.157-.593-.081-1.291-.252-2.124-.423-1.661-.361-3.803-1.01-6.448-2.098-2.637-1.104-5.742-2.763-9.129-5.294-3.793-2.903-6.333-5.753-8.164-8.105-.885-1.204-1.646-2.252-2.212-3.223-.615-.939-1.052-1.78-1.415-2.492-.771-1.4-1.07-2.365-1.289-2.922-.197-.568-.212-.778-.12-.816.092-.037.236.111.52.619.31.496.647 1.408 1.433 2.751.374.681.801 1.5 1.411 2.411.3.458.594.971.963 1.489.375.514.777 1.065 1.208 1.656 1.787 2.308 4.275 5.108 7.992 7.988 3.518 2.644 6.714 4.281 9.351 5.402 1.343.5 2.506 1.001 3.575 1.289 1.055.335 1.967.606 2.765.773 1.577.415 2.647.567 3.304.726.658.156.914.267.902.366z"/><path d="m293.187 310.71c-.112.158-.493.015-1.351-.579-.853-.598-2.195-1.635-4.08-3.414-2.113-2.023-3.21-3.345-3.809-4.118-.591-.781-.665-1.038-.512-1.159.157-.124.364.011 1 .724.644.704 1.701 2.01 3.783 4.009 1.965 1.854 3.312 2.856 4.085 3.492.778.63 1.001.881.884 1.045z"/><path d="m388.861 369.432c-.148.148-1.885-1.519-6.458-5.919-2.301-2.182-5.308-5.056-9.392-8.477-2.049-1.699-4.362-3.546-7.06-5.395-2.69-1.856-5.739-3.763-9.269-5.48-1.01-.452-1.985-.913-2.951-1.324-.98-.375-1.928-.758-2.862-1.098-.946-.303-1.867-.599-2.762-.886-.887-.258-1.894-.516-2.623-1.25-.708-.72-1.035-1.597-1.35-2.372-.311-.789-.611-1.554-.871-2.308-.539-1.501-.971-2.935-1.34-4.288-1.442-5.427-1.821-9.562-1.958-12.55-.129-2.997.012-4.875.108-5.997.124-1.122.22-1.493.319-1.485s.146.373.128 1.467c.009 1.094-.07 2.923.09 5.853.172 2.922.537 6.975 1.947 12.32.353 1.335.783 2.745 1.303 4.228.257.743.54 1.502.852 2.277.306.779.608 1.583 1.131 2.194.506.615 1.326.905 2.23 1.157.907.289 1.84.586 2.799.892.956.317 1.909.725 2.904 1.099.989.392 1.969.876 2.994 1.329 3.787 1.816 7.012 3.843 9.824 5.8 2.815 1.958 5.217 3.867 7.3 5.633 4.173 3.529 7.146 6.42 9.36 8.582 4.405 4.356 5.739 5.866 5.607 5.998z"/><path d="m528.994 333.767c-.017.18-1.188.235-4.274-.1-1.534-.196-3.581-.469-6.064-1.391-2.488-.891-5.301-2.742-7.743-5.781-2.73-3.453-4.119-6.67-5.194-9.159-1.047-2.512-1.688-4.408-2.122-5.796-.847-2.784-.905-3.531-.726-3.579.203-.056.425.61 1.328 3.316.462 1.349 1.103 3.208 2.137 5.687 1.06 2.451 2.419 5.622 5.057 8.993 1.259 1.549 2.575 2.801 3.902 3.736 1.329.936 2.644 1.566 3.863 2.011 2.454.865 4.445 1.128 5.915 1.35 2.963.383 3.941.503 3.921.713z"/><path d="m557.784 356.072c-.175.131-.754-.573-2.33-2.374-1.59-1.776-4.153-4.734-8.87-8.366-5.382-4.024-9.026-5.609-11.031-6.596-2.037-.946-2.549-1.209-2.473-1.406.066-.173.621-.083 2.695.79 2.041.915 5.706 2.526 11.169 6.589 5.05 3.887 7.641 6.928 9.145 8.731 1.484 1.833 1.84 2.525 1.695 2.632z"/><path d="m618.184 394.772c-.089.153-2.032-.812-6.87-3.85-4.803-3.074-12.583-8.177-23.362-17.43-3.03-2.622-5.668-5.06-7.988-7.286-2.333-2.219-4.264-4.299-6.267-5.733-1.98-1.475-4.011-2.167-5.82-2.59-1.809-.421-3.386-.68-4.696-.946-5.257-1.022-6.573-1.361-6.537-1.556s1.326-.041 6.541.892c1.303.244 2.853.486 4.697.896 1.827.404 4.004 1.107 6.073 2.613 2.096 1.46 4.042 3.56 6.352 5.76 2.306 2.219 4.93 4.652 7.949 7.27 11.359 9.752 19.213 14.787 23.834 17.831 4.66 3.004 6.205 3.941 6.094 4.129z"/><path d="m634.567 386.891c-.054.083-.272.042-.709-.148-.219-.095-.492-.227-.828-.4-.339-.166-.768-.323-1.257-.541-.985-.421-2.323-.872-4.079-1.325-1.758-.453-3.953-.826-6.626-1.263-3.019-.484-5.417-.973-7.271-1.535-.919-.309-1.721-.563-2.384-.876-.679-.269-1.224-.561-1.674-.825-.927-.477-1.408-.941-1.712-1.184-.292-.262-.356-.392-.296-.471s.205-.066.542.1c.351.145.833.539 1.737.959.44.23.961.507 1.619.756.638.291 1.413.542 2.306.835 1.802.548 4.152 1.039 7.168 1.523 2.825.456 5.126.859 6.955 1.333 1.821.499 3.188.971 4.154 1.454.988.436 1.578.852 1.938 1.113.359.267.471.412.417.495z"/><path d="m302.095 384.991c-.01.098-.289.136-.928.107-.64-.023-1.639-.111-3.071-.372-2.836-.535-7.544-1.547-13.941-4.961-7.146-3.997-10.451-7.62-12.299-9.589-1.807-2.049-2.118-2.686-1.981-2.793.172-.138.605.358 2.42 2.306.46.482.996 1.065 1.685 1.703.663.665 1.476 1.385 2.425 2.204 1.92 1.608 4.47 3.539 7.993 5.492 6.669 3.56 11.363 4.46 14.068 5.041 1.367.29 2.285.411 2.851.539.569.125.788.224.778.323z"/><path d="m310.314 402.815c-.351.183-1.407-1.886-4.931-8.644-3.978-7.627-4.67-8.911-4.319-9.094s.944 1.079 4.924 8.712c3.727 7.146 4.677 8.843 4.326 9.026z"/><path d="m340.99 416.855c.035.025.043.12-.085.251-.126.134-.421.23-.774.179-.362-.039-.759-.23-1.214-.432-.463-.214-1.019-.471-1.676-.775-2.605-1.263-6.806-3.383-12.983-7.087-6.957-4.207-10.8-7.021-12.988-8.632-2.175-1.634-2.659-2.136-2.544-2.289.122-.163.689.176 2.879 1.724 2.203 1.526 5.995 4.33 12.928 8.529 6.507 3.901 10.733 5.989 13.227 7.283 1.258.604 2.082 1.149 2.545 1.256.474.12.586-.079.685-.007z"/><path d="m511.962 403.226c-.002.099-.266.157-.88.177-.614.027-1.579.015-2.967-.154-2.741-.352-7.349-1.101-13.484-4.419-3.427-1.915-5.857-3.893-7.66-5.553-.882-.855-1.643-1.599-2.24-2.303-.63-.674-1.107-1.29-1.504-1.813-.825-1.022-1.215-1.754-1.468-2.177-.238-.434-.272-.608-.189-.663.187-.124.549.395 2.134 2.389.404.493.871 1.09 1.493 1.74.589.679 1.328 1.409 2.195 2.24 1.759 1.626 4.135 3.568 7.493 5.468 6.374 3.448 10.951 4.068 13.557 4.472 1.323.203 2.208.249 2.757.334.548.08.765.163.763.262z"/><path d="m523.743 418.856c-.277.283-2.007-1.502-7.731-7.309-6.461-6.555-7.571-7.652-7.284-7.924.287-.273 1.29.827 7.749 7.38 6.045 6.133 7.543 7.57 7.266 7.853z"/><path d="m585.586 417.419c-.007.099-.195.154-.629.166-.434.016-1.113-.01-2.087-.154-1.927-.298-5.141-.913-9.467-3.231-4.829-2.721-7-5.255-8.194-6.632-1.164-1.436-1.329-1.895-1.183-2 .172-.127.47.203 1.651 1.542 1.211 1.281 3.293 3.751 8.004 6.431 4.471 2.396 7.645 2.918 9.463 3.271 1.844.317 2.457.387 2.442.607z"/><path d="m196.188 416.461c-.117.108-.773-.319-1.697-2.025-.447-.853-.925-2.05-1.17-3.662-.12-.805-.173-1.714-.092-2.714.052-.99.376-2.114.633-3.179.122-.614.089-1.141-.154-1.609-.233-.471-.594-.91-.9-1.343-.623-.856-1.174-1.612-1.66-2.28-.96-1.344-1.666-2.33-2.18-3.049-1.005-1.453-1.193-1.87-1.033-1.986s.48.179 1.538 1.57c.52.703 1.235 1.671 2.213 2.994.485.665 1.034 1.419 1.657 2.273.302.432.663.856.971 1.438.326.577.403 1.37.261 2.05-.117.651-.319 1.203-.418 1.731-.122.529-.181 1.043-.224 1.53-.072.978-.009 1.859.114 2.632.255 1.548.714 2.661 1.103 3.458.805 1.587 1.22 2.025 1.038 2.171z"/><path d="m158.871 413.631c-.358.168-.847-1.015-2.51-4.87-1.877-4.35-2.214-5.08-1.846-5.226.368-.145.617.577 2.488 4.914 1.752 4.06 2.226 5.014 1.868 5.182z"/><path d="m135.358 389.548c-.02.09-.169.145-.488.076-.313-.069-.81-.285-1.325-.81-.519-.518-1.025-1.329-1.463-2.417-.432-1.079-.889-2.415-1.317-4.072-.923-3.753-.972-6.04-.996-7.324.011-1.292.134-1.615.323-1.612.206.004.263.313.329 1.564.099 1.243.124 3.466 1.023 7.147.906 3.424 1.792 5.491 2.654 6.35.858.861 1.325.858 1.26 1.098z"/><path d="m267.179 337.813c.031.168-.707.454-2.74.661-2.018.175-5.399.355-10.356-.806-5.571-1.424-8.46-3.307-10.055-4.33-1.581-1.087-1.886-1.488-1.776-1.631.129-.171.523.07 2.094 1.059 1.585.927 4.377 2.778 9.831 4.193 5.135 1.203 8.46.944 10.388.849 1.942-.136 2.578-.212 2.614.005z"/><path d="m282.615 349.379c-.099.167-.667-.05-2.041-.84-1.371-.794-3.557-2.149-6.798-4.388-3.649-2.54-5.695-4.148-6.842-5.095-1.142-.954-1.373-1.268-1.25-1.42.126-.156.455.008 1.628.886 1.178.871 3.189 2.477 6.822 5.01 3.41 2.356 5.612 3.688 6.901 4.523 1.292.83 1.683 1.152 1.58 1.324z"/><path d="m568.233 380.768c.005.099-.318.178-1.075.246-.757.081-1.95.107-3.678.026-1.726-.093-3.99-.339-6.832-.971-2.83-.656-6.266-1.678-10.115-3.609-4.357-2.161-7.423-4.557-9.693-6.568-1.143-1.009-2.043-1.943-2.93-2.597-.876-.669-1.701-1.078-2.436-1.272-1.491-.39-2.464-.093-2.983.102-.529.216-.711.328-.782.241-.056-.062.024-.285.563-.629.525-.322 1.63-.741 3.292-.365.827.182 1.753.622 2.684 1.307.946.675 1.871 1.622 2.981 2.607 2.223 1.966 5.218 4.343 9.506 6.478 4.001 2.019 7.521 3.031 10.363 3.679 2.857.626 5.072.83 6.724.97 1.656.096 2.756.133 3.443.154.689.036.963.102.968.201z"/><path d="m398.864 379.805c-.289.27-.759-.262-2.35-1.964-1.796-1.921-2.115-2.232-1.826-2.502s.538.08 2.335 2.002c1.682 1.8 2.13 2.194 1.841 2.464z"/><path d="m449.93 375.928c.111.149-.397.677-1.954 1.786-1.562 1.094-4.161 2.813-8.448 4.865-4.863 2.268-7.9 3.13-9.625 3.607-1.737.45-2.204.452-2.25.268-.05-.199.352-.369 2.031-.884 1.666-.541 4.657-1.367 9.474-3.604 4.485-2.146 7.043-3.896 8.59-4.887 1.539-1.01 2.059-1.318 2.182-1.151z"/><path d="m458.449 370.421c.066.191-.039.316-.348.499-.305.188-.838.429-1.52.999-.758.658-1.066 1.167-1.287 1.421-.214.262-.333.298-.51.203-.172-.092-.211-.213-.047-.545.171-.323.531-.881 1.371-1.613.8-.669 1.398-.951 1.762-1.076.368-.121.516-.072.579.112z"/><path d="m629.466 402.124c-.211.335-.994-.184-3.599-1.83-2.94-1.858-3.449-2.155-3.237-2.49.211-.335.657.015 3.599 1.874 2.753 1.74 3.448 2.111 3.237 2.446z"/><path d="m316.41 417.752c-.187.076-.386-.188-.769-.938-.387-.748-.946-1.994-2-3.8-1.205-2.029-2.052-3.123-2.488-3.782-.444-.655-.502-.867-.345-.992.153-.122.344-.028.855.583.503.616 1.346 1.736 2.577 3.802 1.135 1.944 1.718 3.218 2.029 3.992.304.776.321 1.061.141 1.135z"/><path d="m283.675 417.742c-.361.161-.635-.502-1.596-2.651-1.084-2.426-1.287-2.829-.926-2.99s.484.255 1.569 2.683c1.016 2.272 1.314 2.796.953 2.958z"/><path d="m473.562 339.23c.111.159-.058.402-.652.836-.596.429-1.611 1.065-3.26 1.85-1.869.871-3.027 1.233-3.694 1.405-.672.163-.866.114-.919-.074-.054-.193.082-.313.708-.544.622-.24 1.748-.571 3.576-1.419 1.703-.811 2.682-1.458 3.29-1.802.604-.35.836-.417.951-.252z"/><path d="m179.658 331.116c-.037-.092.342-.336 1.262-.794.46-.229 1.056-.512 1.802-.855.744-.349 1.615-.814 2.661-1.329 2.085-1.045 4.766-2.523 8.085-4.613 3.309-2.104 7.206-4.916 11.541-8.766 4.86-4.386 8.251-8.336 10.79-11.545 1.241-1.629 2.316-3.043 3.168-4.324.896-1.251 1.588-2.351 2.173-3.277 1.21-1.828 1.849-3.046 2.322-3.728.454-.693.655-.901.742-.854s.018.312-.338 1.043c-.377.718-.948 1.959-2.12 3.802-.571.931-1.241 2.043-2.132 3.3-.441.631-.892 1.328-1.424 2.048-.538.714-1.116 1.481-1.734 2.302-2.536 3.233-5.952 7.204-10.837 11.647-9.275 8.204-16.249 11.7-20.317 13.731-2.052 1.017-3.472 1.558-4.355 1.892-.884.329-1.251.411-1.289.32z"/><path d="m429.274 418.447c-.051.085-.614-.183-1.862-.903-1.251-.716-3.191-1.878-5.911-3.712-2.737-1.807-6.235-4.314-10.576-7.721-4.319-3.432-9.424-7.852-15.128-13.684-6.4-6.621-10.911-12.381-14.3-17.038-.828-1.179-1.6-2.28-2.321-3.308-.717-1.03-1.328-2.024-1.923-2.927-1.199-1.801-2.124-3.379-2.907-4.706-1.604-2.631-2.431-4.382-2.97-5.407-.516-1.039-.64-1.414-.553-1.46.087-.047.33.245.923 1.21.296.482.681 1.133 1.177 1.993.483.868 1.112 1.926 1.914 3.215.793 1.294 1.706 2.85 2.901 4.625.59.892 1.206 1.867 1.906 2.894.715 1.016 1.483 2.106 2.305 3.274 3.353 4.622 7.83 10.348 14.185 16.964 12.056 12.259 21.021 18.222 26.213 21.856 2.616 1.814 4.409 2.925 5.492 3.673 1.084.741 1.486 1.077 1.435 1.162z"/><path d="m414.411 417.707c-.113.149-.929-.32-2.874-1.838-1.933-1.528-5.031-4.076-9.345-8.436-4.834-4.956-7.307-8.178-8.705-10.02-1.378-1.862-1.635-2.4-1.481-2.512.165-.121.55.289 1.967 2.072 1.436 1.764 3.862 4.959 8.663 9.894 4.534 4.581 7.659 7.092 9.482 8.63 1.836 1.524 2.418 2.045 2.293 2.21z"/><path d="m381.695 419.179c-.119.165-.905-.303-2.904-1.64-2.002-1.331-5.208-3.552-10.305-6.671-5.767-3.498-9.268-5.319-11.24-6.418-1.979-1.087-2.451-1.422-2.359-1.602.088-.173.618-.008 2.62 1 1.994 1.021 5.479 2.855 11.273 6.363 5.408 3.309 8.647 5.548 10.558 6.913 1.906 1.374 2.47 1.899 2.357 2.055z"/><path d="m119.558 398.942c.295.254-.002.907-1.158 2.317-1.162 1.403-3.167 3.58-6.478 6.668-3.757 3.465-6.13 5.294-7.529 6.277-1.41.972-1.873 1.07-2.106.755-.238-.321-.004-.694 1.278-1.767 1.271-1.085 3.622-2.846 7.337-6.265 3.456-3.223 5.405-5.42 6.637-6.665 1.223-1.252 1.715-1.582 2.019-1.32z"/><path d="m234.198 383.469c.578.498-.266 1.571-3.408 4.719-3.614 3.485-4.335 3.963-4.818 3.384-.534-.633.241-.956 3.794-4.376 3.257-3.271 3.81-4.267 4.432-3.727z"/><path d="m456.642 399.294c.224.314-.197.873-1.629 1.915-1.436 1.029-3.87 2.578-7.855 4.445-4.517 2.067-7.326 2.876-8.935 3.273-1.621.374-2.076.28-2.172-.097-.1-.389.246-.637 1.771-1.147 1.515-.534 4.252-1.279 8.676-3.294 4.121-1.932 6.477-3.506 7.929-4.359 1.445-.867 1.981-1.066 2.215-.736z"/></g></svg>