<svg xmlns="http://www.w3.org/2000/svg" viewBox="0 0 70.79 70.79"><defs><style>.cls-1{fill:none;stroke:#000;stroke-linecap:round;stroke-linejoin:round;stroke-width:3px;}</style></defs><title>Asset 26</title><g id="Layer_2" data-name="Layer 2"><g id="Layer_2-2" data-name="Layer 2"><path class="cls-1" d="M52.78,69.29A21.84,21.84,0,0,0,69.29,52.77"/><path class="cls-1" d="M52,64.66A16.74,16.74,0,0,0,64.65,52"/><path class="cls-1" d="M59.77,51.26a11.28,11.28,0,0,1-8.51,8.51h0"/><rect class="cls-1" x="23.93" y="18.55" width="15.48" height="26.24" rx="3.54" transform="translate(-13.12 31.67) rotate(-45)"/><path class="cls-1" d="M43.9,6.86H59.2a3.38,3.38,0,0,1,3.38,3.38V15.3a3.38,3.38,0,0,1-3.38,3.38H43.9a5.34,5.34,0,0,1-5.34-5.34V12.2A5.34,5.34,0,0,1,43.9,6.86Z" transform="translate(5.78 39.5) rotate(-45)"/><line class="cls-1" x1="42.08" y1="21.26" x2="37.14" y2="26.2"/><path class="cls-1" d="M6.1,44.66H21.4A3.38,3.38,0,0,1,24.78,48V53.1a3.38,3.38,0,0,1-3.38,3.38H6.1A5.34,5.34,0,0,1,.76,51.14V50A5.34,5.34,0,0,1,6.1,44.66Z" transform="translate(57.56 77.3) rotate(135)"/><line class="cls-1" x1="21.26" y1="42.08" x2="26.2" y2="37.14"/><rect class="cls-1" x="9.05" y="44.66" width="7.44" height="11.82" transform="translate(-32.02 23.84) rotate(-45)"/><rect class="cls-1" x="46.85" y="6.86" width="7.44" height="11.82" transform="translate(5.78 39.5) rotate(-45)"/><path class="cls-1" d="M57.79,44.32A9.52,9.52,0,0,0,44.32,57.79Z"/><line class="cls-1" x1="44.32" y1="44.32" x2="40.95" y2="40.95"/><line class="cls-1" x1="51.11" y1="51.11" x2="52.86" y2="52.86"/><line class="cls-1" x1="22.02" y1="32.97" x2="28.12" y2="26.86"/></g></g></svg>