<svg xmlns="http://www.w3.org/2000/svg" viewBox="0 0 70.85 70.85"><defs><style>.cls-1{fill:none;stroke:#000;stroke-linejoin:round;stroke-width:3px;}</style></defs><title>Asset 28</title><g id="Layer_2" data-name="Layer 2"><g id="Layer_2-2" data-name="Layer 2"><path class="cls-1" d="M69.35,38.88V32a2.89,2.89,0,0,0-2.9-2.89H64.51a2.9,2.9,0,0,1-2.76-2A26.75,26.75,0,0,0,60,22.73a2.9,2.9,0,0,1,.51-3.39L61.85,18a2.89,2.89,0,0,0,0-4.09L57,9a2.89,2.89,0,0,0-4.09,0L51.5,10.37a2.89,2.89,0,0,1-3.39.5,28,28,0,0,0-4.3-1.78,2.89,2.89,0,0,1-2-2.75V4.39A2.89,2.89,0,0,0,38.88,1.5H32a2.89,2.89,0,0,0-2.89,2.89v2a2.89,2.89,0,0,1-2,2.75,27.69,27.69,0,0,0-4.31,1.78,2.9,2.9,0,0,1-3.39-.5L18,9a2.89,2.89,0,0,0-4.09,0L9,13.88A2.89,2.89,0,0,0,9,18l1.38,1.37a2.9,2.9,0,0,1,.5,3.39A27.69,27.69,0,0,0,9.09,27a2.89,2.89,0,0,1-2.75,2H4.39A2.89,2.89,0,0,0,1.5,32v6.91a2.89,2.89,0,0,0,2.89,2.89h2a2.89,2.89,0,0,1,2.75,2,28,28,0,0,0,1.78,4.3,2.89,2.89,0,0,1-.5,3.39L9,52.88A2.89,2.89,0,0,0,9,57l4.89,4.88a2.89,2.89,0,0,0,4.09,0l1.37-1.37A2.9,2.9,0,0,1,22.73,60,26.75,26.75,0,0,0,27,61.75a2.9,2.9,0,0,1,2,2.76v1.94A2.89,2.89,0,0,0,32,69.35h6.91a2.9,2.9,0,0,0,2.89-2.9V64.51a2.9,2.9,0,0,1,2-2.76A27,27,0,0,0,48.11,60a2.89,2.89,0,0,1,3.39.51l1.38,1.37a2.89,2.89,0,0,0,4.09,0L61.85,57a2.89,2.89,0,0,0,0-4.09L60.48,51.5A2.89,2.89,0,0,1,60,48.11a27,27,0,0,0,1.78-4.3,2.9,2.9,0,0,1,2.76-2h1.94A2.9,2.9,0,0,0,69.35,38.88Z"/><circle class="cls-1" cx="35.42" cy="35.42" r="18.28"/></g></g></svg>