<svg xmlns="http://www.w3.org/2000/svg" viewBox="0 0 50.65 55.61"><defs><style>.cls-1{fill:none;stroke:#010101;stroke-linecap:round;stroke-linejoin:round;stroke-width:2px;}</style></defs><title>Asset 23</title><g id="Layer_2" data-name="Layer 2"><g id="Layer_1-2" data-name="Layer 1"><path class="cls-1" d="M24.4,51.45a7.92,7.92,0,0,1-3.24-.34C3.91,45.55,1.18,25.87,1,15.24c0-1.78,0-3.31.07-4.47A2.24,2.24,0,0,1,3.3,8.64a6.64,6.64,0,0,0,5.62-3.3C12.08.6,23.58,1,23.58,1S35.08.6,38.24,5.34a6.65,6.65,0,0,0,5.63,3.3,2.24,2.24,0,0,1,2.21,2.13c.06,1.21.11,2.83.07,4.71A60.38,60.38,0,0,1,44,30.64"/><path class="cls-1" d="M47.39,54.61H31a2.25,2.25,0,0,1-2-3.23l.9-1.88,7.28-15.13a2.25,2.25,0,0,1,4.06,0l.82,1.7,7.36,15.31A2.25,2.25,0,0,1,47.39,54.61Z"/><line class="cls-1" x1="39.21" y1="38.91" x2="39.21" y2="47.1"/><line class="cls-1" x1="39.21" y1="50.55" x2="39.21" y2="50.55"/><path class="cls-1" d="M46.15,15.48,35.59,13.24a63.5,63.5,0,0,0-28.47.48L1,15.24c0-1.78,0-3.31.07-4.47A2.24,2.24,0,0,1,3.3,8.64a6.64,6.64,0,0,0,5.62-3.3C12.08.6,23.58,1,23.58,1S35.08.6,38.24,5.34a6.65,6.65,0,0,0,5.63,3.3,2.24,2.24,0,0,1,2.21,2.13C46.14,12,46.19,13.6,46.15,15.48Z"/></g></g></svg>